<svg width="2298" height="1815" viewBox="0 0 2298 1815" fill="none" xmlns="http://www.w3.org/2000/svg">
<path fill-rule="evenodd" clip-rule="evenodd" d="M61.6521 636.714C45.7267 575.045 65.1692 502.049 98.527 427.615C125.727 366.922 162.025 305.59 195.495 249.036C203.044 236.281 210.449 223.768 217.574 211.561C236.91 178.43 254.184 147.535 266.589 120.198C278.971 92.914 286.623 68.9263 286.478 49.6722C286.405 40.0046 284.367 31.437 279.894 24.241C275.413 17.0319 268.582 11.3495 259.181 7.31175C240.487 -0.717547 211.461 -2.31938 169.653 3.42803L170.198 7.39076C211.846 1.66536 239.955 3.40698 257.602 10.9871C266.372 14.754 272.513 19.9428 276.497 26.3526C280.489 32.7754 282.409 40.5744 282.478 49.7023C282.616 68.0391 275.285 91.3579 262.947 118.545C250.633 145.681 233.45 176.423 214.119 209.544C207.022 221.705 199.636 234.184 192.099 246.918L192.098 246.921C158.623 303.481 122.179 365.058 94.8768 425.979C61.4498 500.567 41.4935 574.65 57.7792 637.714C61.1489 650.763 68.9299 660.058 80.6852 665.891C92.3484 671.679 107.827 674.019 126.637 673.492C164.253 672.44 215.985 659.893 279.208 639.152C381.07 605.734 513.306 550.854 665.431 487.719L665.434 487.718L665.501 487.69C688.361 478.203 711.67 468.529 735.393 458.714C722.593 469.265 709.523 479.849 696.236 490.439C450.698 686.127 132.137 882.978 82.1202 912.709C75.615 916.576 71.7856 921.27 71.4965 926.726C71.211 932.114 74.4348 937.424 80.0142 942.427C91.2021 952.458 113.345 962.61 144.625 971.441C207.336 989.147 307.882 1001.85 434.48 996.937C619.999 989.744 861.614 944.736 1122.35 822.11C1042.7 886.205 963.102 959.692 885.416 1043.73L885.205 1043.96L885.073 1044.25C754.51 1323.56 625.183 1431.43 483.849 1445.16C413.073 1452.03 339.027 1435.34 259.93 1404.34C180.827 1373.34 96.8335 1328.11 6.16454 1278.05L0.737305 1275.05L3.39017 1280.65L137.223 1563.35L137.271 1563.45L137.331 1563.54L292.03 1813.03L292.843 1814.34L294.317 1813.89C749.394 1674.17 1215.25 1356.44 1579.64 1096.44C1585.63 1092.16 1591.59 1087.91 1597.52 1083.67C1566.29 1124.91 1537.81 1165.05 1513.51 1202.92C1477.18 1259.52 1450.12 1311.16 1437.19 1353.89C1424.3 1396.51 1425.27 1431 1446.19 1452.46C1467.02 1473.83 1506.89 1481.44 1569.54 1472.43C1770.38 1443.57 1927.15 1330.25 2041.48 1200.48C2155.8 1070.72 2227.8 924.383 2259.11 829.154L2255.31 827.905C2224.15 922.671 2152.4 1068.52 2038.47 1197.84C1924.56 1327.14 1768.58 1439.79 1568.97 1468.47C1506.49 1477.45 1468.43 1469.55 1449.05 1449.66C1429.76 1429.87 1428.22 1397.38 1441.02 1355.05C1453.79 1312.84 1480.62 1261.58 1516.87 1205.08C1543.13 1164.17 1574.29 1120.58 1608.55 1075.78C1633.95 1057.61 1658.83 1039.76 1683.14 1022.31L1683.16 1022.3C1821.51 923.024 1941.62 836.841 2036.25 779.046C2095.03 743.145 2143.81 718.312 2180.92 708.06C2199.48 702.934 2214.93 701.508 2227.19 704.026C2239.34 706.524 2248.41 712.91 2254.36 723.673C2285.23 779.534 2283.15 855.226 2267.37 935.814C2254.5 1001.52 2232.6 1070.12 2212.41 1133.38L2212.39 1133.43C2207.84 1147.68 2203.38 1161.66 2199.13 1175.27C2187.57 1212.26 2177.56 1246.57 2171.61 1276.21C2165.67 1305.78 2163.71 1330.99 2168.48 1349.66C2170.88 1359.04 2175 1366.86 2181.25 1372.73C2187.5 1378.61 2195.76 1382.41 2206.19 1383.98C2226.95 1387.1 2256.59 1381.42 2297.4 1365.4L2295.94 1361.67C2255.27 1377.64 2226.45 1382.98 2206.78 1380.02C2197 1378.55 2189.55 1375.04 2183.99 1369.82C2178.42 1364.58 2174.62 1357.5 2172.36 1348.67C2167.82 1330.92 2169.61 1306.47 2175.53 1276.99C2181.44 1247.58 2191.4 1213.45 2202.95 1176.47C2207.19 1162.89 2211.64 1148.93 2216.19 1134.69L2216.19 1134.68C2236.39 1071.42 2258.38 1002.54 2271.3 936.582C2287.11 855.832 2289.46 778.911 2257.86 721.738C2251.31 709.894 2241.22 702.828 2227.99 700.108C2214.86 697.408 2198.7 698.999 2179.86 704.205C2142.17 714.616 2092.99 739.707 2034.16 775.633C1939.39 833.513 1819.12 919.813 1680.76 1019.1C1659.89 1034.07 1638.62 1049.34 1616.96 1064.85C1627.35 1051.39 1638.01 1037.83 1648.89 1024.22C1818.85 811.524 2041.4 584.955 2132.04 495.294C2182.44 537.173 2234.1 586.162 2288.61 638.654L2293.17 643.045L2291.96 636.832L2232.33 330.268L2232.31 330.161L2232.28 330.056L2145.5 50.7072L2145.03 49.2141L2143.47 49.3039C1686.28 75.6067 1177.9 272.118 777.607 436.958C771.087 439.643 764.596 442.32 758.135 444.987C854.624 363.844 933.662 285.173 970.226 221.225C992.11 182.951 999.16 149.274 984.604 123.446C970.085 97.6847 934.591 80.7063 873.985 74.3915C679.758 54.1539 507.173 126.51 370.435 225.018C233.707 323.52 132.665 448.276 81.4297 533.192L84.8546 535.259C135.843 450.751 236.532 326.414 372.773 228.264C509.005 130.12 680.626 58.2659 873.571 78.3699C933.956 84.6618 967.626 101.468 981.119 125.41C994.575 149.286 988.485 181.232 966.753 219.24C929.329 284.693 846.647 366.117 745.824 450.072C717.907 461.61 690.555 472.961 663.822 484.056C511.71 547.185 379.664 601.986 277.961 635.351C214.783 656.078 163.522 668.459 126.525 669.494C108.028 670.011 93.2957 667.684 82.4634 662.308C71.7231 656.978 64.7246 648.612 61.6521 636.714ZM2134.89 492.469C2183.94 533.241 2234.12 580.67 2286.83 631.385L2228.43 331.137L2142.14 53.3877C1686.12 80.0032 1179.03 275.976 779.131 440.657C768.652 444.972 758.246 449.266 747.917 453.535C731.928 466.842 715.495 480.204 698.729 493.567C452.981 689.422 134.241 886.381 84.1641 916.148C78.1576 919.718 75.677 923.425 75.4909 926.937C75.3012 930.517 77.4369 934.743 82.6846 939.448C93.151 948.833 114.533 958.789 145.712 967.592C207.919 985.155 308.027 997.837 434.325 992.94C623.003 985.624 869.976 939.084 1136.09 811.148C1240.98 728.159 1345.79 661.34 1446.26 608.032C1616.38 402.746 1753.35 338.122 1881.9 357.748C1934.93 365.844 1986.35 388.26 2037.91 420.807C2057.13 419.536 2074.58 419.132 2090.08 419.481C2123.76 420.24 2148.52 424.562 2162.21 431.497C2169.02 434.951 2173.57 439.302 2174.59 444.639C2175.61 450.041 2172.86 455.553 2167.25 460.909C2160.98 466.887 2149.89 477.658 2134.89 492.469ZM2043.63 424.458C2060.59 423.465 2076.08 423.167 2089.99 423.48C2123.58 424.237 2147.57 428.561 2160.4 435.065C2166.85 438.331 2170 441.897 2170.66 445.385C2171.31 448.807 2169.71 453.025 2164.48 458.015C2158.17 464.04 2146.96 474.926 2131.8 489.904C2115.51 476.444 2099.34 463.727 2083.25 451.877C2070.01 442.132 2056.81 432.969 2043.63 424.458ZM2036.87 424.885C2051.5 434.158 2066.15 444.26 2080.88 455.099C2096.81 466.826 2112.81 479.41 2128.94 492.73C2038.05 582.66 1815.67 809.09 1645.77 1021.72C1632.05 1038.89 1618.68 1055.96 1605.74 1072.87C1596.33 1079.6 1586.86 1086.37 1577.31 1093.18C1213.26 1352.94 748.517 1669.87 294.617 1809.61L140.79 1561.53L9.65739 1284.54C98.238 1333.41 180.673 1377.58 258.47 1408.07C337.858 1439.17 412.579 1456.1 484.236 1449.14C627.719 1435.2 757.884 1325.67 888.565 1046.22C970.392 957.723 1054.34 880.958 1138.22 814.56C1228.37 771.195 1320.71 718.51 1413.71 654.873L1413.97 654.697L1414.16 654.45C1425.88 639.381 1437.43 624.969 1448.84 611.194C1572.7 545.54 1689.94 500.47 1792.57 470.972C1889.23 443.187 1972.89 429.228 2036.87 424.885ZM2031.13 421.286C1981.45 390.515 1932.04 369.45 1881.3 361.703C1756.41 342.636 1622.46 404.131 1455.55 603.135C1576.51 539.793 1690.96 496.016 1791.46 467.128C1885.6 440.067 1967.54 426.061 2031.13 421.286ZM1439.6 616.121C1346.61 666.047 1250.02 727.584 1153.18 802.834C1237.76 761.184 1324.18 711.269 1411.19 651.748C1420.77 639.442 1430.23 627.569 1439.6 616.121Z" fill="#4CD6D4" fill-opacity="0.3"/>
</svg>
