<svg width="45" height="36" viewBox="0 0 45 36" fill="none" xmlns="http://www.w3.org/2000/svg">
<g clip-path="url(#clip0_91_626)">
<path d="M40.4123 6.00004C40.2419 5.98599 40.0702 5.98599 39.8998 6.00004H4.8998C4.67548 6.0028 4.45265 6.02971 4.2373 6.08004L22.2998 20.47L40.4123 6.00004Z" fill="#4CD6D4"/>
<path d="M42.2626 7.38989L24.0626 21.8899C23.5942 22.2624 22.9606 22.4715 22.3001 22.4715C21.6396 22.4715 21.006 22.2624 20.5376 21.8899L2.5001 7.49989C2.44465 7.66293 2.41525 7.83094 2.4126 7.99989V27.9999C2.4126 28.5303 2.67599 29.039 3.14483 29.4141C3.61367 29.7892 4.24956 29.9999 4.9126 29.9999H39.9126C40.5756 29.9999 41.2115 29.7892 41.6804 29.4141C42.1492 29.039 42.4126 28.5303 42.4126 27.9999V7.99989C42.4026 7.79155 42.352 7.58573 42.2626 7.38989ZM6.6251 27.9999H4.8876V26.5699L13.9751 19.3599L15.7376 20.7699L6.6251 27.9999ZM39.8876 27.9999H38.1376L29.0251 20.7699L30.7876 19.3599L39.8751 26.5699L39.8876 27.9999Z" fill="#4CD6D4"/>
</g>
<defs>
<clipPath id="clip0_91_626">
<rect width="45" height="36" fill="white"/>
</clipPath>
</defs>
</svg>
