<svg width="37" height="30" viewBox="0 0 37 30" fill="none" xmlns="http://www.w3.org/2000/svg">
<path d="M30.7563 26.25C27.4417 26.25 24.2108 25.6508 21.0638 24.4525C17.9167 23.2542 15.1289 21.6708 12.7002 19.7025C10.2716 17.7342 8.31883 15.4738 6.84192 12.9212C5.365 10.3687 4.62603 7.74917 4.625 5.0625C4.625 4.6875 4.77917 4.375 5.0875 4.125C5.39583 3.875 5.78125 3.75 6.24375 3.75H12.4875C12.8472 3.75 13.1684 3.84375 13.451 4.03125C13.7337 4.21875 13.9007 4.45833 13.9521 4.75L14.9542 9.125C15.0056 9.41667 14.9989 9.6825 14.9341 9.9225C14.8694 10.1625 14.7219 10.3758 14.4917 10.5625L10.7917 13.625C11.8708 15.125 13.2198 16.5312 14.8385 17.8438C16.4573 19.1562 18.2431 20.2917 20.1958 21.25L23.8187 18.3125C24.05 18.125 24.3522 17.9846 24.7253 17.8912C25.0983 17.7979 25.4642 17.7717 25.8229 17.8125L31.1417 18.6875C31.5014 18.75 31.7969 18.8908 32.0281 19.11C32.2594 19.3292 32.375 19.5842 32.375 19.875V24.9375C32.375 25.3125 32.2208 25.625 31.9125 25.875C31.6042 26.125 31.2188 26.25 30.7563 26.25Z" fill="#4CD6D4"/>
</svg>
